<?xml version="1.0" standalone="no"?>
<!DOCTYPE svg PUBLIC "-//W3C//DTD SVG 20010904//EN"
 "http://www.w3.org/TR/2001/REC-SVG-20010904/DTD/svg10.dtd">
<svg version="1.0" xmlns="http://www.w3.org/2000/svg"
 width="1000.000000pt" height="1000.000000pt" viewBox="0 0 1000.000000 1000.000000"
 preserveAspectRatio="xMidYMid meet">
<metadata>
Created by potrace 1.14, written by Peter Selinger 2001-2017
</metadata>
<g transform="translate(0.000000,1000.000000) scale(0.100000,-0.100000)"
fill="#000000" stroke="none">
<path d="M0 5000 l0 -5000 5000 0 5000 0 0 5000 0 5000 -5000 0 -5000 0 0
-5000z m3020 303 c14 -9 26 -17 28 -18 1 -1 -9 -27 -22 -57 -29 -65 -80 -234
-101 -338 -19 -90 -23 -216 -7 -232 22 -22 64 5 109 70 29 43 45 59 49 49 16
-43 -90 -171 -150 -183 -78 -14 -112 47 -103 183 7 93 14 85 -84 98 l-46 6
-83 -168 c-46 -92 -85 -170 -87 -172 -8 -11 -43 35 -43 58 0 31 53 146 104
226 20 30 36 58 36 60 0 3 -33 5 -72 5 l-73 0 27 27 c23 22 39 28 96 32 l69 6
79 105 c81 108 221 260 239 260 6 0 22 -8 35 -17z m1920 -12 c30 -57 -35 -176
-167 -309 -57 -56 -103 -106 -103 -110 0 -4 4 -12 9 -18 5 -5 16 -35 24 -67
31 -120 88 -131 166 -31 14 18 25 24 31 18 16 -16 -41 -88 -84 -108 -30 -14
-43 -15 -68 -7 -45 16 -48 14 -48 -22 0 -45 -26 -143 -53 -195 -61 -124 -157
-120 -157 6 0 215 224 748 353 840 39 27 83 29 97 3z m881 -14 c-42 -43 -89
-55 -168 -45 -51 7 -68 6 -74 -4 -16 -26 -79 -230 -73 -239 3 -5 29 -10 57
-10 29 -1 66 -4 82 -8 l30 -6 -25 -18 c-17 -12 -44 -17 -90 -17 -36 0 -70 -4
-75 -8 -14 -9 -71 -215 -86 -309 -10 -60 -15 -73 -30 -73 -32 0 -59 36 -59 79
0 43 37 180 69 254 l21 48 -60 -7 c-33 -4 -60 -4 -60 -1 0 34 40 60 108 72 23
4 42 11 42 16 0 6 20 61 45 122 25 62 45 116 45 119 0 6 -45 3 -107 -7 -47 -8
-66 -45 -61 -116 5 -67 -6 -75 -47 -34 -40 39 -28 101 27 151 64 58 132 72
345 71 l172 -2 -28 -28z m280 -7 c11 -35 10 -50 -6 -98 -35 -113 -120 -255
-201 -336 -49 -49 -49 -50 -49 -114 0 -50 4 -67 17 -75 31 -20 69 4 117 75 50
75 80 78 37 5 -38 -64 -106 -124 -151 -133 -45 -8 -85 17 -97 62 -24 83 48
297 167 500 93 158 143 192 166 114z m-2315 -95 c3 -8 -20 -63 -53 -122 -32
-59 -59 -111 -61 -115 -2 -5 35 -8 82 -8 67 0 86 -3 86 -14 0 -11 -22 -16 -87
-21 -49 -3 -93 -8 -100 -10 -17 -6 -53 -129 -53 -184 0 -57 12 -71 62 -71 32
0 47 8 89 47 28 26 57 60 65 75 8 15 19 28 24 28 16 0 -27 -76 -67 -121 -72
-80 -175 -105 -224 -53 -20 21 -23 35 -22 84 l1 59 -32 -42 c-71 -94 -186
-137 -236 -87 -26 26 -25 58 5 130 14 33 25 70 25 84 0 24 -23 56 -40 56 -4 0
-27 -39 -50 -87 -34 -69 -44 -83 -52 -70 -6 12 -3 28 11 55 38 69 60 130 54
152 -7 28 16 70 39 70 18 0 21 -7 19 -50 -1 -18 8 -31 33 -47 20 -13 43 -34
52 -49 19 -28 14 -64 -22 -157 -16 -41 -17 -49 -4 -57 24 -15 82 17 136 75 32
34 54 51 60 45 6 -6 16 15 28 57 18 61 18 66 3 75 -24 13 -21 28 7 28 20 0 30
15 68 93 25 51 60 110 78 130 33 38 66 48 76 22z m3584 -213 c0 -21 11 -72 25
-112 14 -40 25 -95 25 -122 0 -30 4 -48 12 -48 6 0 34 23 61 51 27 28 50 49
53 47 11 -11 -57 -96 -89 -111 -19 -9 -50 -32 -69 -51 -88 -88 -232 -38 -233
79 l0 44 -23 -24 c-44 -47 -110 -42 -134 10 -6 14 -15 24 -18 23 -4 -2 -29
-32 -56 -68 -100 -134 -180 -126 -178 18 1 23 0 42 -1 42 -1 0 -16 -22 -34
-49 -38 -59 -85 -101 -113 -101 -11 0 -33 13 -49 29 -22 23 -29 39 -29 69 0
54 36 166 63 198 21 23 26 25 46 15 12 -7 20 -18 17 -24 -41 -93 -56 -139 -56
-173 0 -51 19 -71 50 -54 31 17 110 144 123 198 10 38 17 48 36 50 34 5 39
-11 24 -81 -15 -73 -17 -173 -3 -182 29 -18 150 152 150 211 0 69 40 113 76
83 16 -13 16 -22 -6 -111 -23 -93 34 -141 85 -73 21 27 31 33 41 24 25 -21
144 124 144 176 0 28 20 55 40 55 16 0 20 -7 20 -38z m-2945 -14 c46 -21 46
-93 1 -181 -21 -40 -23 -49 -11 -54 22 -8 73 16 95 45 24 30 38 22 22 -13 -17
-38 -69 -65 -124 -65 -35 0 -50 -5 -57 -18 -14 -26 -103 -72 -139 -72 -67 0
-92 89 -51 180 29 65 56 90 96 90 25 0 33 4 33 18 1 33 54 81 92 82 9 0 29 -5
43 -12z m1915 -11 c29 -15 53 -58 44 -81 -3 -8 -15 -18 -26 -22 -18 -5 -18 -7
-3 -18 16 -11 15 -17 -14 -75 -36 -70 -34 -101 4 -101 29 0 86 48 116 98 13
20 24 39 25 41 2 1 7 0 13 -4 28 -17 -87 -156 -145 -175 -52 -18 -114 11 -114
52 0 10 -1 18 -3 18 -2 0 -24 -20 -49 -44 -25 -24 -57 -45 -71 -48 -32 -6 -82
14 -91 37 -26 69 23 187 110 263 76 67 147 88 204 59z"/>
<path d="M2900 5188 c-31 -33 -170 -235 -170 -248 0 -10 103 -31 110 -23 4 5
15 38 24 76 9 37 29 103 45 147 16 44 28 80 26 80 -2 0 -18 -15 -35 -32z"/>
<path d="M4836 5199 c-29 -34 -89 -138 -106 -184 -11 -30 -11 -30 30 10 53 51
106 123 125 169 14 34 14 36 -4 36 -11 0 -31 -14 -45 -31z"/>
<path d="M4601 4656 c-49 -178 -44 -311 8 -209 46 91 68 266 38 308 -12 16
-17 5 -46 -99z"/>
<path d="M6023 5179 c-52 -75 -161 -304 -150 -315 7 -7 97 126 130 193 64 127
76 204 20 122z"/>
<path d="M7311 4875 c-1 -5 -19 -33 -40 -62 l-40 -52 19 -24 c21 -26 88 -63
97 -53 7 6 -15 150 -27 180 -5 12 -9 17 -9 11z"/>
<path d="M7209 4713 c-10 -67 42 -116 96 -91 34 15 31 32 -9 46 -18 7 -41 21
-51 32 -19 20 -34 26 -36 13z"/>
<path d="M4356 4891 c-19 -36 -20 -85 -2 -126 l14 -30 26 57 c33 70 32 121 -1
126 -16 2 -26 -5 -37 -27z"/>
<path d="M4244 4786 c-32 -70 -31 -139 3 -144 13 -2 35 9 57 28 l36 32 -21 29
c-11 16 -23 45 -26 64 -9 54 -21 52 -49 -9z"/>
<path d="M6206 4870 c-93 -86 -152 -269 -78 -243 26 9 88 71 140 138 26 33 50
62 54 63 9 4 11 44 2 66 -4 10 -18 16 -40 16 -26 0 -45 -10 -78 -40z"/>
</g>
</svg>
